<?xml version="1.0" encoding="UTF-8" standalone="no"?>
<svg
   xmlns:dc="http://purl.org/dc/elements/1.1/"
   xmlns:cc="http://creativecommons.org/ns#"
   xmlns:rdf="http://www.w3.org/1999/02/22-rdf-syntax-ns#"
   xmlns:svg="http://www.w3.org/2000/svg"
   xmlns="http://www.w3.org/2000/svg"
   id="svg2852"
   version="1.1"
   viewBox="0 0 4.6578436 4.9998178"
   height="4.9998178mm"
   width="4.6578436mm">
  <defs
     id="defs2846">
  </defs>
  <metadata
     id="metadata2849">
    <rdf:RDF>
      <cc:Work
         rdf:about="">
        <dc:format>image/svg+xml</dc:format>
        <dc:type
           rdf:resource="http://purl.org/dc/dcmitype/StillImage" />
        <dc:title></dc:title>
      </cc:Work>
    </rdf:RDF>
  </metadata>
  <g
     transform="translate(-67.994233,-88.321737)"
     id="layer1">
    <g
       transform="matrix(0.44671905,0,0,0.450432,37.527724,50.657936)"
       style="stroke-width:2.00637;stroke-miterlimit:4;stroke-dasharray:none"
       id="g3466">
      <path
         id="path3494"
         d="M 73.414062 83.617188 A 0.78025502 0.78025502 0 0 0 72.632812 84.396484 L 72.632812 89.640625 A 0.78025502 0.78025502 0 0 0 73.414062 90.419922 A 0.78025502 0.78025502 0 0 0 74.193359 89.640625 L 74.193359 84.396484 A 0.78025502 0.78025502 0 0 0 73.414062 83.617188 z "
         style="color:#000000;font-style:normal;font-variant:normal;font-weight:normal;font-stretch:normal;font-size:medium;line-height:normal;font-family:sans-serif;font-variant-ligatures:normal;font-variant-position:normal;font-variant-caps:normal;font-variant-numeric:normal;font-variant-alternates:normal;font-variant-east-asian:normal;font-feature-settings:normal;font-variation-settings:normal;text-indent:0;text-align:start;text-decoration:none;text-decoration-line:none;text-decoration-style:solid;text-decoration-color:#000000;letter-spacing:normal;word-spacing:normal;text-transform:none;writing-mode:lr-tb;direction:ltr;text-orientation:mixed;dominant-baseline:auto;baseline-shift:baseline;text-anchor:start;white-space:normal;shape-padding:0;shape-margin:0;inline-size:0;clip-rule:nonzero;display:inline;overflow:visible;visibility:visible;isolation:auto;mix-blend-mode:normal;color-interpolation:sRGB;color-interpolation-filters:linearRGB;solid-color:#000000;solid-opacity:1;vector-effect:none;fill:#6d757d;fill-opacity:1;fill-rule:nonzero;stroke:none;stroke-width:1.56051;stroke-linecap:round;stroke-linejoin:miter;stroke-miterlimit:4;stroke-dasharray:none;stroke-dashoffset:0;stroke-opacity:1;color-rendering:auto;image-rendering:auto;shape-rendering:auto;text-rendering:auto;enable-background:accumulate;stop-color:#000000;stop-opacity:1;opacity:1" />
      <path
         id="path3490"
         d="M 70.878906 85.107422 A 0.78025502 0.78025502 0 0 0 70.423828 85.248047 C 68.562514 86.548987 67.757807 88.913963 68.441406 91.078125 C 69.125006 93.242287 71.142421 94.716797 73.414062 94.716797 C 75.685704 94.716797 77.70312 93.242287 78.386719 91.078125 C 79.070317 88.913963 78.265611 86.548986 76.404297 85.248047 A 0.78025502 0.78025502 0 0 0 75.316406 85.439453 A 0.78025502 0.78025502 0 0 0 75.509766 86.525391 C 76.818415 87.440053 77.378513 89.087582 76.898438 90.607422 C 76.418362 92.127262 75.012232 93.15625 73.414062 93.15625 C 71.815893 93.15625 70.409763 92.127262 69.929688 90.607422 C 69.449612 89.087582 70.00971 87.440053 71.318359 86.525391 A 0.78025502 0.78025502 0 0 0 71.509766 85.439453 A 0.78025502 0.78025502 0 0 0 70.878906 85.107422 z "
         style="color:#000000;font-style:normal;font-variant:normal;font-weight:normal;font-stretch:normal;font-size:medium;line-height:normal;font-family:sans-serif;font-variant-ligatures:normal;font-variant-position:normal;font-variant-caps:normal;font-variant-numeric:normal;font-variant-alternates:normal;font-variant-east-asian:normal;font-feature-settings:normal;font-variation-settings:normal;text-indent:0;text-align:start;text-decoration:none;text-decoration-line:none;text-decoration-style:solid;text-decoration-color:#000000;letter-spacing:normal;word-spacing:normal;text-transform:none;writing-mode:lr-tb;direction:ltr;text-orientation:mixed;dominant-baseline:auto;baseline-shift:baseline;text-anchor:start;white-space:normal;shape-padding:0;shape-margin:0;inline-size:0;clip-rule:nonzero;display:inline;overflow:visible;visibility:visible;isolation:auto;mix-blend-mode:normal;color-interpolation:sRGB;color-interpolation-filters:linearRGB;solid-color:#000000;solid-opacity:1;vector-effect:none;fill:#6d757d;fill-opacity:1;fill-rule:nonzero;stroke:none;stroke-width:1.56051;stroke-linecap:round;stroke-linejoin:round;stroke-miterlimit:4;stroke-dasharray:none;stroke-dashoffset:0;stroke-opacity:1;color-rendering:auto;image-rendering:auto;shape-rendering:auto;text-rendering:auto;enable-background:accumulate;stop-color:#000000;stop-opacity:1;opacity:1" />
    </g>
  </g>
</svg>
