<?xml version="1.0" encoding="UTF-8" standalone="no"?>
<svg
   xmlns:dc="http://purl.org/dc/elements/1.1/"
   xmlns:cc="http://creativecommons.org/ns#"
   xmlns:rdf="http://www.w3.org/1999/02/22-rdf-syntax-ns#"
   xmlns:svg="http://www.w3.org/2000/svg"
   xmlns="http://www.w3.org/2000/svg"
   id="svg1467"
   viewBox="0 0 10.649 10"
   version="1.1"
   height="10mm"
   width="10.649mm">
  <defs
     id="defs1471" />
  <metadata
     id="metadata1449">
    <rdf:RDF>
      <cc:Work
         rdf:about="">
        <dc:format>image/svg+xml</dc:format>
        <dc:type
           rdf:resource="http://purl.org/dc/dcmitype/StillImage" />
        <dc:title></dc:title>
      </cc:Work>
    </rdf:RDF>
  </metadata>
  <g
     style="fill:#6d757d;fill-opacity:1"
     id="g1465"
     transform="translate(-57.42 -56.232)">
    <g
       id="g1463"
       style="stroke:#000;fill:#6d757d;fill-opacity:1"
       transform="translate(-49.558 47.532)">
      <path
         id="path1451"
         style="color-rendering:auto;color:#000000;dominant-baseline:auto;font-feature-settings:normal;font-variant-alternates:normal;font-variant-caps:normal;font-variant-east-asian:normal;font-variant-ligatures:normal;font-variant-numeric:normal;font-variant-position:normal;font-variation-settings:normal;image-rendering:auto;inline-size:0;isolation:auto;mix-blend-mode:normal;shape-margin:0;shape-padding:0;shape-rendering:auto;solid-color:#000000;stop-color:#000000;stroke:none;text-decoration-color:#000000;text-decoration-line:none;text-decoration-style:solid;text-indent:0;text-orientation:mixed;text-transform:none;white-space:normal;fill:#6d757d;fill-opacity:1"
         d="m112.3 8.7461a0.45 0.45 0 0 0-0.45117 0.45117v2.959a0.45 0.45 0 0 0 0.45117 0.45117 0.45 0.45 0 0 0 0.44922-0.45117v-2.959a0.45 0.45 0 0 0-0.44922-0.45117z" />
      <path
         id="path1453"
         style="color-rendering:auto;color:#000000;dominant-baseline:auto;font-feature-settings:normal;font-variant-alternates:normal;font-variant-caps:normal;font-variant-east-asian:normal;font-variant-ligatures:normal;font-variant-numeric:normal;font-variant-position:normal;font-variation-settings:normal;image-rendering:auto;inline-size:0;isolation:auto;mix-blend-mode:normal;shape-margin:0;shape-padding:0;shape-rendering:auto;solid-color:#000000;stop-color:#000000;stroke:none;text-decoration-color:#000000;text-decoration-line:none;text-decoration-style:solid;text-indent:0;text-orientation:mixed;text-transform:none;white-space:normal;fill:#6d757d;fill-opacity:1"
         d="m111.11 8.6992a0.45 0.45 0 0 0-0.44336 0.39844l-0.32617 2.793a0.45 0.45 0 0 0 0.39453 0.5 0.45 0.45 0 0 0 0.5-0.39453l0.32617-2.793a0.45 0.45 0 0 0-0.39453-0.5 0.45 0.45 0 0 0-0.05664-0.0039062z" />
      <path
         id="path1455"
         style="color-rendering:auto;color:#000000;dominant-baseline:auto;font-feature-settings:normal;font-variant-alternates:normal;font-variant-caps:normal;font-variant-east-asian:normal;font-variant-ligatures:normal;font-variant-numeric:normal;font-variant-position:normal;font-variation-settings:normal;image-rendering:auto;inline-size:0;isolation:auto;mix-blend-mode:normal;shape-margin:0;shape-padding:0;shape-rendering:auto;solid-color:#000000;stop-color:#000000;stroke:none;text-decoration-color:#000000;text-decoration-line:none;text-decoration-style:solid;text-indent:0;text-orientation:mixed;text-transform:none;white-space:normal;fill:#6d757d;fill-opacity:1"
         d="m113.47 8.7012a0.45 0.45 0 0 0-0.0293 0.0019531 0.45 0.45 0 0 0-0.39453 0.5l0.32617 2.793a0.45 0.45 0 0 0 0.5 0.39453 0.45 0.45 0 0 0 0.39453-0.5l-0.32617-2.793a0.45 0.45 0 0 0-0.4707-0.39648z" />
      <path
         id="path1457"
         style="color-rendering:auto;color:#000000;dominant-baseline:auto;font-feature-settings:normal;font-variant-alternates:normal;font-variant-caps:normal;font-variant-east-asian:normal;font-variant-ligatures:normal;font-variant-numeric:normal;font-variant-position:normal;font-variation-settings:normal;image-rendering:auto;inline-size:0;isolation:auto;mix-blend-mode:normal;shape-margin:0;shape-padding:0;shape-rendering:auto;solid-color:#000000;stop-color:#000000;stroke:none;text-decoration-color:#000000;text-decoration-line:none;text-decoration-style:solid;text-indent:0;text-orientation:mixed;text-transform:none;white-space:normal;fill:#6d757d;fill-opacity:1"
         d="m110.95 12.791a0.45 0.45 0 0 0-0.19336 0.041015 0.45 0.45 0 0 0-0.21875 0.59961c0.18484 0.39764 0.40563 0.72852 0.69922 0.97266 0.29359 0.24413 0.66764 0.38281 1.0606 0.38281 0.39289 0 0.76696-0.13868 1.0606-0.38281 0.29358-0.24413 0.51436-0.57503 0.69921-0.97266a0.45 0.45 0 0 0-0.21875-0.59961 0.45 0.45 0 0 0-0.59765 0.21875c-0.14929 0.32112-0.30751 0.53778-0.45703 0.66211-0.14953 0.12434-0.2836 0.17383-0.48633 0.17383-0.20277 0-0.33682-0.049502-0.48633-0.17383s-0.30776-0.34098-0.45703-0.66211a0.45 0.45 0 0 0-0.4043-0.25976z" />
      <path
         id="path1459"
         style="color-rendering:auto;color:#000000;dominant-baseline:auto;font-feature-settings:normal;font-variant-alternates:normal;font-variant-caps:normal;font-variant-east-asian:normal;font-variant-ligatures:normal;font-variant-numeric:normal;font-variant-position:normal;font-variation-settings:normal;image-rendering:auto;inline-size:0;isolation:auto;mix-blend-mode:normal;shape-margin:0;shape-padding:0;shape-rendering:auto;solid-color:#000000;stop-color:#000000;stroke:none;text-decoration-color:#000000;text-decoration-line:none;text-decoration-style:solid;text-indent:0;text-orientation:mixed;text-transform:none;white-space:normal;fill:#6d757d;fill-opacity:1"
         d="m109.8 12.705a0.45 0.45 0 0 0-0.33399 0.13086c-0.67367 0.67081-0.66207 1.5898-0.28516 2.2031 0.32883 0.53504 0.91709 0.85705 1.5469 0.83789 0.62526 0.74558 1.5508 0.82668 1.5723 0.82617 0.02142 5.11e-4 0.947-0.080565 1.5723-0.82617 0.62978 0.019135 1.218-0.30286 1.5469-0.83789 0.37691-0.61328 0.38851-1.5323-0.28516-2.2031a0.45 0.45 0 0 0-0.63672 0.001953 0.45 0.45 0 0 0 0.00195 0.63672c0.41033 0.40859 0.35681 0.76107 0.15235 1.0938-0.20447 0.33268-0.60257 0.52364-0.84375 0.46875l-0.32422-0.074218-0.16602 0.28906c-0.33113 0.57615-1.0039 0.55469-1.0039 0.55469l-0.01367-0.001953-0.01368 0.001953s-0.67276 0.021434-1.0039-0.55469l-0.16602-0.28906-0.32422 0.074218c-0.24118 0.054899-0.63929-0.13606-0.84375-0.46875-0.20446-0.33269-0.25798-0.68516 0.15235-1.0938a0.45 0.45 0 0 0 0.00195-0.63672 0.45 0.45 0 0 0-0.30273-0.13281z" />
      <path
         id="path1461"
         style="color-rendering:auto;color:#000000;dominant-baseline:auto;font-feature-settings:normal;font-variant-alternates:normal;font-variant-caps:normal;font-variant-east-asian:normal;font-variant-ligatures:normal;font-variant-numeric:normal;font-variant-position:normal;font-variation-settings:normal;image-rendering:auto;inline-size:0;isolation:auto;mix-blend-mode:normal;shape-margin:0;shape-padding:0;shape-rendering:auto;solid-color:#000000;stop-color:#000000;stroke:none;text-decoration-color:#000000;text-decoration-line:none;text-decoration-style:solid;text-indent:0;text-orientation:mixed;text-transform:none;white-space:normal;fill:#6d757d;fill-opacity:1"
         d="m107.86 13.293a0.45 0.45 0 0 0-0.28125 0.12305c-0.66345 0.6256-0.73415 1.4826-0.41015 2.082 0.26281 0.48624 0.75277 0.77644 1.2949 0.87891 0.15659 0.7718 0.52455 1.3423 1.0293 1.5879 0.508 0.24716 1.023 0.17282 1.4688 0.054687 0.38582 0.37512 0.81771 0.68164 1.3438 0.68164 0.52589 0 0.956-0.3067 1.3418-0.68164 0.44614 0.11856 0.96204 0.1928 1.4707-0.054687 0.50474-0.24558 0.87271-0.81611 1.0293-1.5879 0.54213-0.10251 1.0321-0.39463 1.2949-0.88086 0.32401-0.59942 0.25335-1.4545-0.41015-2.0801a0.45 0.45 0 0 0-0.63672 0.017578 0.45 0.45 0 0 0 0.01953 0.63672c0.42549 0.40115 0.39517 0.70419 0.23633 0.99805-0.15884 0.29385-0.52896 0.51633-0.83399 0.50391l-0.42968-0.017578-0.03711 0.42773c-0.0672 0.75217-0.33146 1.0301-0.62696 1.1738s-0.70001 0.12327-0.98437 0.023438l-0.32031-0.11328-0.19727 0.27734c-0.28821 0.40666-0.43281 0.45703-0.91602 0.45703-0.48325 0-0.62979-0.050387-0.91796-0.45703l-0.19532-0.27734-0.32031 0.11328c-0.28435 0.099851-0.69083 0.12033-0.98633-0.023438-0.29549-0.14377-0.5578-0.42164-0.625-1.1738l-0.03711-0.42773-0.42968 0.017578c-0.30504 0.012449-0.67516-0.21006-0.83399-0.50391-0.15882-0.29384-0.18914-0.59685 0.23633-0.99805a0.45 0.45 0 0 0 0.01953-0.63672 0.45 0.45 0 0 0-0.35547-0.14062z" />
    </g>
  </g>
</svg>
